<svg width="180" height="180" fill="none" xmlns="http://www.w3.org/2000/svg"><path d="M136.838 113.87H42.729a2.136 2.136 0 01-2.023-1.412l-14.068-40.1c-.382-1.092.213-2.28 1.33-2.656.343-.113.7-.142 1.032-.084a2.132 2.132 0 011.829 1.242c1.739 3.86 7.925 16.32 15.142 16.32.09 0 .18-.002.272-.007 4.353-.19 11.161-5.099 18.875-27.402a2.136 2.136 0 012.026-1.421c.918 0 1.731.572 2.026 1.42 2.634 7.606 11.462 27.287 20.628 27.287l.074-.001c4.346-.052 11.028-4.818 18.184-27.239a2.134 2.134 0 012.042-1.467h.021c.945.01 1.771.622 2.033 1.508 2.187 7.36 9.944 26.64 19.458 27.444 5.558.447 11.722-5.7 17.807-17.844.494-.991 1.696-1.437 2.74-1.013 1.041.423 1.57 1.564 1.205 2.609l-14.5 41.404a2.135 2.135 0 01-2.024 1.412zm-92.581-4.18h91.051l8.38-23.927c-4.05 4.188-8.162 6.056-12.45 5.705-10.538-.896-17.768-15.735-21.13-24.458-5.938 16.2-12.568 24.137-20.187 24.224-.042 0-.081.003-.123.003-10.648 0-18.869-15.954-22.593-24.754-6.354 16.386-13.173 24.534-20.772 24.866-3.896.147-7.288-1.75-10.21-4.564l8.034 22.905z" fill="#FFDC62" stroke="#1F1C1D" stroke-width=".8"/></svg>