<svg width="180" height="180" viewBox="0 0 180 180" fill="none" xmlns="http://www.w3.org/2000/svg">
<path d="M136.838 113.87H42.7293C41.8151 113.87 41.0024 113.302 40.7063 112.458L26.6382 72.3589C26.2564 71.2657 26.8511 70.0781 27.9685 69.7025C28.3112 69.5889 28.6686 69.5602 29.0002 69.6176C29.7737 69.6618 30.4945 70.1187 30.8286 70.8603C32.5677 74.7198 38.7542 87.18 45.9712 87.18C46.0606 87.18 46.1512 87.1776 46.2429 87.1728C50.5962 86.9839 57.4044 82.0742 65.1183 59.7707C65.4132 58.9216 66.2271 58.3499 67.1437 58.3499C68.0616 58.3499 68.8755 58.9216 69.1704 59.7707C71.8041 67.3762 80.6317 87.0568 89.7983 87.0568C89.8228 87.0568 89.846 87.0556 89.8717 87.0556C94.2176 87.0042 100.9 82.238 108.056 59.8174C108.336 58.9431 109.162 58.3499 110.098 58.3499H110.119C111.064 58.3594 111.89 58.9718 112.152 59.858C114.339 67.2184 122.096 86.4971 131.61 87.302C137.168 87.7493 143.332 81.6018 149.417 69.4585C149.911 68.467 151.113 68.0209 152.157 68.4455C153.198 68.8677 153.727 70.0087 153.362 71.054L138.862 112.458C138.565 113.304 137.752 113.87 136.838 113.87ZM44.2566 109.69H135.308L143.688 85.7627C139.638 89.9512 135.526 91.8194 131.238 91.4678C120.7 90.5719 113.47 75.7329 110.108 67.0103C104.17 83.2092 97.5403 91.1472 89.9207 91.2345C89.8791 91.2345 89.8399 91.2369 89.7983 91.2369C79.1496 91.2369 70.9291 75.2832 67.2049 66.4828C60.8507 82.8695 54.0315 91.0169 46.4326 91.3494C42.5371 91.4965 39.1447 89.5996 36.2233 86.7853L44.2566 109.69Z" fill="#FFDC62" stroke="#1F1C1D" stroke-width="0.8"/>
</svg>
